# xmcd
#
# Track frame offsets:
#	150
#	25012
#	34980
#	55435
#	90920
#	115847
#	143235
#	156975
#	175812
#	188922
#	214027
#	238180
#
# Disc length: 3749 seconds
#
# Revision: 1
# Processed by: cddbd v1.5.1PL0 Copyright (c) Steve Scherf et al.
# Submitted via: CDex 1.50Beta5
#
DISCID=a20ea30c
DTITLE=東京学芸大学管弦楽団 - ONCE UPON A TIME CLASSICS―DREAM
DYEAR=1900
DGENRE=
TTITLE0=アンサンブル・ウィーン=ベルリン/亡き王女のためのパヴァーヌ
TTITLE1=アロイス&アルフォンス・コンタルスキー(ピアノ) /カール・ベーム指揮 /ウィーン・フィルハーモニー管弦楽団/水族館
TTITLE2=オルフェウス室内管弦楽団/グリーンスリーヴス幻想曲
TTITLE3=フリードリヒ・グルダ(ピアノ) /クラウディオ・アバド指揮 /ウィーン・フィルハーモニー管弦楽団/ピアノ協奏曲第21番〜第2楽章
TTITLE4=ミッシャ・マイスキー(チェロ) /パーヴェル・ギリロフ(ピアノ)/アヴェ・マリア
TTITLE5=ベルリン・フィルハーモニー管弦楽団/《タイス》瞑想曲
TTITLE6=マルタ・アルゲリッチ/トロイメライ
TTITLE7=ボストン交響楽団/シシリエンヌ
TTITLE8=イングリッシュ・コンサート/チェンバロ協奏曲第5番〜第2楽章
TTITLE9=ベルリン・フィルハーモニー管弦楽団/ヴォカリーズ
TTITLE10=東京学芸大学管弦楽団/月の光
TTITLE11=ボストン交響楽団/牧神の午後への前奏曲
EXTD=
EXTT0=
EXTT1=
EXTT2=
EXTT3=
EXTT4=
EXTT5=
EXTT6=
EXTT7=
EXTT8=
EXTT9=
EXTT10=
EXTT11=
PLAYORDER=
